<svg xmlns="http://www.w3.org/2000/svg" viewBox="0 0 429.97 76.7"><defs><style>.cls-1{fill:#53555f;}.cls-2{fill:#f26524;}.cls-3{fill:#008ccf;}</style></defs><title>ruparupa-logo</title><g id="Layer_2" data-name="Layer 2"><g id="Layer_1-2" data-name="Layer 1"><path class="cls-1" d="M.51,1.91s7.14.28,7.14,4.38V9.86a25,25,0,0,1,6.75-7A13.27,13.27,0,0,1,21.79.51,12.73,12.73,0,0,1,28,2.36s-.33,4.95-7.35,4.95a10.13,10.13,0,0,0-6.74,2.87Q10.65,13.06,9,19.1q-1.31,4.65-1.3,18.79V56.28S.51,56.53.51,50.68Z"/><path class="cls-1" d="M7.51,56.79c-.76,0-3.91-.12-5.9-2A5.42,5.42,0,0,1,0,50.68V1.38l.53,0c.31,0,7.63.35,7.63,4.89v2a24,24,0,0,1,6-5.85A13.83,13.83,0,0,1,21.79,0a13.29,13.29,0,0,1,6.45,1.91l.28.16,0,.32c0,.05-.44,5.42-7.86,5.42a9.67,9.67,0,0,0-6.4,2.74c-2.08,1.85-3.7,4.77-4.79,8.68-.85,3-1.28,9.29-1.28,18.65V56.77l-.49,0ZM1,2.46V50.68A4.44,4.44,0,0,0,2.32,54a7.82,7.82,0,0,0,4.82,1.74V37.89c0-9.59.43-15.78,1.32-18.93,1.15-4.1,2.87-7.18,5.1-9.17a10.66,10.66,0,0,1,7.08-3c5.5,0,6.58-3.13,6.79-4.16A12,12,0,0,0,21.79,1a12.83,12.83,0,0,0-7.11,2.24,24.6,24.6,0,0,0-6.61,6.88l-.39-.27H7.14V6.29C7.14,3.33,2.6,2.62,1,2.46Z"/><path class="cls-1" d="M33,1.91s7,.1,7,4.38v21q0,9.3,1,12.8A14.27,14.27,0,0,0,46.76,48a17.46,17.46,0,0,0,10.08,2.89A17,17,0,0,0,66.78,48a14.43,14.43,0,0,0,5.63-7.41q1-3.15,1-13.35v-21c0-4.27,7.15-4.38,7.15-4.38V28.59q0,11.24-2.62,16.94a20.09,20.09,0,0,1-7.9,8.92q-5.27,3.22-13.21,3.22T43.6,54.45a19.85,19.85,0,0,1-7.94-9Q33,39.68,33,28.09Z"/><path class="cls-1" d="M56.87,58.19a25.87,25.87,0,0,1-13.54-3.3,20.44,20.44,0,0,1-8.14-9.23c-1.77-3.89-2.67-9.8-2.67-17.57V1.39H33c.31,0,7.5.16,7.5,4.89v21c0,6.11.33,10.37,1,12.66A13.82,13.82,0,0,0,47,47.56a17,17,0,0,0,9.79,2.8,16.56,16.56,0,0,0,9.64-2.74,14,14,0,0,0,5.44-7.16c.68-2,1-6.48,1-13.18v-21c0-4.72,7.34-4.88,7.66-4.89h.52v27.2c0,7.53-.9,13.3-2.67,17.15a20.7,20.7,0,0,1-8.1,9.15C66.76,57.08,62.23,58.19,56.87,58.19ZM33.55,2.45V28.09c0,7.62.87,13.39,2.58,17.15A19.44,19.44,0,0,0,43.87,54a24.88,24.88,0,0,0,13,3.15c5.16,0,9.52-1.06,12.94-3.15a19.69,19.69,0,0,0,7.7-8.7c1.71-3.72,2.58-9.35,2.58-16.73V2.45C78.53,2.57,74,3.19,74,6.29v21c0,6.81-.36,11.35-1.07,13.51a15,15,0,0,1-5.83,7.67,17.55,17.55,0,0,1-10.23,2.92,18,18,0,0,1-10.37-3,14.83,14.83,0,0,1-5.93-8.17c-.68-2.38-1-6.74-1-12.95v-21C39.52,3.19,35.09,2.57,33.55,2.45Z"/><path class="cls-1" d="M90.11,1.91s7,.1,7,4.38v5.62a28.2,28.2,0,0,1,9.53-8.55,25.41,25.41,0,0,1,12-2.85,26.84,26.84,0,0,1,19.81,8.34,27.57,27.57,0,0,1,8.24,20.09,28.06,28.06,0,0,1-8.17,20.36A27.46,27.46,0,0,1,106.93,55a30.12,30.12,0,0,1-9.84-8V76.16s-7-.36-7-5Zm28,5.35a20.54,20.54,0,0,0-15.27,6.33A21.65,21.65,0,0,0,96.6,29.36,22.42,22.42,0,0,0,99.37,40.5a20.24,20.24,0,0,0,7.92,7.84,22,22,0,0,0,10.9,2.89,20.5,20.5,0,0,0,10.59-2.92,21.45,21.45,0,0,0,7.91-8.16,22,22,0,0,0,0-22A21.06,21.06,0,0,0,118.08,7.26Z"/><path class="cls-1" d="M97.61,76.7l-.54,0c-2.59-.13-7.48-1.46-7.48-5.54V1.39h.52c.31,0,7.5.16,7.5,4.89v4.1a28.17,28.17,0,0,1,8.78-7.48A26,26,0,0,1,118.67,0a27.45,27.45,0,0,1,20.17,8.49,28.2,28.2,0,0,1,8.39,20.45,28.68,28.68,0,0,1-8.31,20.72,28,28,0,0,1-32.21,5.78,30.15,30.15,0,0,1-9.1-7.12Zm-7-74.25V71.13c0,3.43,4.41,4.28,6,4.47V45.51l.91,1.1a29.76,29.76,0,0,0,9.67,7.91,27,27,0,0,0,31-5.57,27.68,27.68,0,0,0,8-20,27.21,27.21,0,0,0-8.1-19.73A26.46,26.46,0,0,0,118.67,1a25,25,0,0,0-11.8,2.79,27.83,27.83,0,0,0-9.35,8.4l-.92,1.27V6.29C96.59,3.19,92.16,2.57,90.62,2.45Zm27.57,49.29a22.56,22.56,0,0,1-11.15-3,20.85,20.85,0,0,1-8.12-8,23,23,0,0,1-2.83-11.38,22.25,22.25,0,0,1,6.35-16.13,21.13,21.13,0,0,1,15.64-6.49,21.57,21.57,0,0,1,19.07,11.19,22.56,22.56,0,0,1,0,22.46,22.07,22.07,0,0,1-8.1,8.35A21.08,21.08,0,0,1,118.19,51.74Zm-.11-44A20.14,20.14,0,0,0,103.17,14a21.26,21.26,0,0,0-6.06,15.41,22,22,0,0,0,2.7,10.88,19.84,19.84,0,0,0,7.73,7.64,21.55,21.55,0,0,0,10.65,2.83,20.07,20.07,0,0,0,10.33-2.85,21.05,21.05,0,0,0,7.73-8,21.53,21.53,0,0,0,0-21.46A20.55,20.55,0,0,0,118.08,7.77Z"/><path class="cls-2" d="M209.88,1.91V56.28s-6.9.25-6.9-5.59V46.93a30.08,30.08,0,0,1-9.87,8,27.55,27.55,0,0,1-31.68-5.68,28,28,0,0,1-8.17-20.36,27.56,27.56,0,0,1,8.25-20.09A26.88,26.88,0,0,1,181.34.51a25.71,25.71,0,0,1,12.12,2.85A27.65,27.65,0,0,1,203,11.91V6.29C203,1.62,209.88,1.91,209.88,1.91Zm-28,5.35a21.08,21.08,0,0,0-18.64,10.93,22.05,22.05,0,0,0,0,22,21.39,21.39,0,0,0,7.92,8.16,20.63,20.63,0,0,0,10.66,2.92,21.82,21.82,0,0,0,10.87-2.89,20.34,20.34,0,0,0,7.91-7.84,22.35,22.35,0,0,0,2.77-11.13,21.64,21.64,0,0,0-6.22-15.77A20.59,20.59,0,0,0,181.92,7.26Z"/><path class="cls-2" d="M181.14,58.19a27.14,27.14,0,0,1-20.08-8.53,28.67,28.67,0,0,1-8.32-20.72,28.19,28.19,0,0,1,8.39-20.45A27.48,27.48,0,0,1,181.34,0,26.35,26.35,0,0,1,193.7,2.91a27.65,27.65,0,0,1,8.77,7.47V6.29a4,4,0,0,1,1.25-3c2.08-2,6-1.86,6.18-1.85l.49,0V56.77l-.49,0c-.14,0-3.65.11-5.8-2a5.5,5.5,0,0,1-1.62-4.13V48.32a30.11,30.11,0,0,1-9.13,7.12A27.31,27.31,0,0,1,181.14,58.19ZM181.34,1a26.49,26.49,0,0,0-19.47,8.19,27.2,27.2,0,0,0-8.1,19.73,27.67,27.67,0,0,0,8,20,27,27,0,0,0,31.09,5.57,29.6,29.6,0,0,0,9.58-7.77v0l.1-.13.15.13h.75v4a4.52,4.52,0,0,0,1.31,3.39,7.4,7.4,0,0,0,4.56,1.68V2.42c-1.06,0-3.56.25-4.94,1.57a3,3,0,0,0-.94,2.3v7.21l-.93-1.29a27.27,27.27,0,0,0-9.34-8.39A25.34,25.34,0,0,0,181.34,1Zm.53,50.71a21.24,21.24,0,0,1-10.92-3,22,22,0,0,1-8.1-8.35,22.56,22.56,0,0,1,0-22.46A21.59,21.59,0,0,1,181.92,6.75a21.18,21.18,0,0,1,15.66,6.49,22.23,22.23,0,0,1,6.36,16.13,23,23,0,0,1-2.84,11.38,21,21,0,0,1-8.11,8A22.42,22.42,0,0,1,181.87,51.74Zm0-44a20.56,20.56,0,0,0-18.2,10.67,21.54,21.54,0,0,0,0,21.46,21,21,0,0,0,7.73,8,20.23,20.23,0,0,0,10.4,2.85,21.41,21.41,0,0,0,10.62-2.83,19.93,19.93,0,0,0,7.72-7.64,22,22,0,0,0,2.71-10.88A21.24,21.24,0,0,0,196.85,14,20.2,20.2,0,0,0,181.92,7.77Z"/><path class="cls-1" d="M220.1,1.91s7.13-.11,7.13,4.38V9.86a25,25,0,0,1,6.75-7A13.29,13.29,0,0,1,241.38.51a12.73,12.73,0,0,1,6.2,1.85,7.81,7.81,0,0,1-7.35,4.95,10.16,10.16,0,0,0-6.75,2.87q-3.25,2.88-4.94,8.92-1.31,4.65-1.3,18.79V56.28s-7.13.25-7.13-5.59Z"/><path class="cls-1" d="M227.09,56.79c-.76,0-3.91-.12-5.89-2a5.43,5.43,0,0,1-1.61-4.07V1.4h.5c.18,0,4.37,0,6.47,2a3.87,3.87,0,0,1,1.18,2.86v2a24.05,24.05,0,0,1,6-5.85A13.85,13.85,0,0,1,241.38,0a13.27,13.27,0,0,1,6.45,1.91l.37.21-.14.4a8.39,8.39,0,0,1-7.83,5.29,9.7,9.7,0,0,0-6.41,2.74c-2.08,1.84-3.69,4.76-4.79,8.68-.85,3-1.28,9.3-1.28,18.65V56.77l-.49,0ZM220.61,2.43V50.68a4.44,4.44,0,0,0,1.3,3.33,7.81,7.81,0,0,0,4.82,1.74V37.89c0-9.58.43-15.77,1.32-18.93,1.15-4.11,2.87-7.19,5.09-9.17a10.69,10.69,0,0,1,7.09-3,7.2,7.2,0,0,0,6.7-4.21A12,12,0,0,0,241.38,1a12.85,12.85,0,0,0-7.11,2.24,24.67,24.67,0,0,0-6.6,6.88l-.31-.21h-.62V6.29a2.85,2.85,0,0,0-.88-2.13C224.44,2.76,221.73,2.49,220.61,2.43Z"/><path class="cls-1" d="M252.62,1.91s7-.09,7,4.38v21q0,9.3,1,12.8A14.23,14.23,0,0,0,266.35,48a17.44,17.44,0,0,0,10.08,2.89A17,17,0,0,0,286.36,48,14.39,14.39,0,0,0,292,40.64q1-3.15,1.05-13.35v-21c0-4.66,7.15-4.38,7.15-4.38V28.59q0,11.24-2.62,16.94a20,20,0,0,1-7.9,8.92q-5.27,3.22-13.21,3.22t-13.27-3.22a19.88,19.88,0,0,1-7.94-9q-2.62-5.77-2.63-17.36Z"/><path class="cls-1" d="M276.46,58.19a25.86,25.86,0,0,1-13.53-3.3,20.46,20.46,0,0,1-8.14-9.23c-1.77-3.91-2.67-9.82-2.67-17.57V1.4h.5c.19,0,4.26,0,6.33,2a3.89,3.89,0,0,1,1.18,2.87v21c0,6.13.33,10.39,1,12.66a13.79,13.79,0,0,0,5.52,7.61,17,17,0,0,0,9.79,2.8,16.58,16.58,0,0,0,9.65-2.74,14,14,0,0,0,5.43-7.16c.68-2,1-6.47,1-13.18v-21a4,4,0,0,1,1.24-3c2.13-2,6.27-1.91,6.44-1.9l.49,0V28.59c0,7.53-.9,13.3-2.67,17.15a20.65,20.65,0,0,1-8.09,9.14C286.35,57.08,281.81,58.19,276.46,58.19ZM253.13,2.44V28.09c0,7.61.87,13.38,2.58,17.15A19.46,19.46,0,0,0,263.46,54a24.86,24.86,0,0,0,13,3.15c5.16,0,9.52-1.06,12.94-3.15a19.64,19.64,0,0,0,7.7-8.7c1.71-3.71,2.58-9.34,2.58-16.73V2.42c-1.1,0-3.77.24-5.2,1.62a3,3,0,0,0-.92,2.25v21c0,6.91-.35,11.33-1.08,13.51a15,15,0,0,1-5.82,7.67,17.57,17.57,0,0,1-10.23,2.92,18,18,0,0,1-10.37-3,14.79,14.79,0,0,1-5.93-8.17c-.69-2.4-1-6.63-1-12.94v-21a2.87,2.87,0,0,0-.88-2.14C256.85,2.78,254.23,2.49,253.13,2.44Z"/><path class="cls-1" d="M309.69,1.91s7,.08,7,4.38v5.62a28.21,28.21,0,0,1,9.53-8.55,25.41,25.41,0,0,1,12-2.85,26.84,26.84,0,0,1,19.81,8.34,27.56,27.56,0,0,1,8.24,20.09,28.08,28.08,0,0,1-8.16,20.36A27.46,27.46,0,0,1,326.52,55a30.09,30.09,0,0,1-9.84-8V76.16s-7-.36-7-5Zm28,5.35a20.57,20.57,0,0,0-15.28,6.33,21.66,21.66,0,0,0-6.2,15.77A22.38,22.38,0,0,0,319,40.5a20.24,20.24,0,0,0,7.93,7.84,21.93,21.93,0,0,0,10.89,2.89,20.51,20.51,0,0,0,10.59-2.92,21.41,21.41,0,0,0,7.9-8.16,22.06,22.06,0,0,0,0-22A21.08,21.08,0,0,0,337.67,7.26Z"/><path class="cls-1" d="M317.2,76.7l-.54,0c-2.58-.13-7.47-1.46-7.47-5.54V1.39h.52c.31,0,7.49.14,7.49,4.89v4.1A28.16,28.16,0,0,1,326,2.91,26,26,0,0,1,338.25,0a27.46,27.46,0,0,1,20.18,8.49,28.2,28.2,0,0,1,8.39,20.45,28.69,28.69,0,0,1-8.3,20.72,28,28,0,0,1-32.21,5.78,30.12,30.12,0,0,1-9.1-7.12Zm-7-74.25V71.13c0,3.42,4.41,4.27,6,4.47V45.51l.91,1.1a29.74,29.74,0,0,0,9.67,7.91,27,27,0,0,0,31-5.57,27.7,27.7,0,0,0,8-20A27.2,27.2,0,0,0,357.7,9.21,26.47,26.47,0,0,0,338.25,1a25,25,0,0,0-11.79,2.79,27.85,27.85,0,0,0-9.36,8.4l-.92,1.27V6.29C316.17,3.18,311.74,2.57,310.21,2.45Zm27.56,49.29a22.52,22.52,0,0,1-11.14-3,20.85,20.85,0,0,1-8.12-8,23,23,0,0,1-2.83-11.38A22.25,22.25,0,0,1,322,13.24a21.15,21.15,0,0,1,15.65-6.49,21.59,21.59,0,0,1,19.07,11.19,22.56,22.56,0,0,1,0,22.46,22,22,0,0,1-8.09,8.35A21.1,21.1,0,0,1,337.77,51.74Zm-.1-44A20.16,20.16,0,0,0,322.75,14a21.27,21.27,0,0,0-6.05,15.41,22,22,0,0,0,2.7,10.88,19.83,19.83,0,0,0,7.73,7.64,21.51,21.51,0,0,0,10.64,2.83,20.09,20.09,0,0,0,10.33-2.85,21,21,0,0,0,7.72-8,21.55,21.55,0,0,0,0-21.46A20.57,20.57,0,0,0,337.67,7.77Z"/><path class="cls-3" d="M429.46,1.91V56.28s-6.89.25-6.89-5.59V46.93a30.06,30.06,0,0,1-9.87,8A27.55,27.55,0,0,1,381,49.3a28,28,0,0,1-8.17-20.36A27.55,27.55,0,0,1,381.1,8.85,26.88,26.88,0,0,1,400.93.51,25.7,25.7,0,0,1,413,3.36a27.63,27.63,0,0,1,9.52,8.55V6.29C422.57,2,429.46,1.91,429.46,1.91Zm-28,5.35a21.08,21.08,0,0,0-18.64,10.93,22,22,0,0,0,0,22,21.4,21.4,0,0,0,7.91,8.16,20.65,20.65,0,0,0,10.66,2.92,21.81,21.81,0,0,0,10.87-2.89,20.34,20.34,0,0,0,7.91-7.84A22.34,22.34,0,0,0,423,29.36a21.64,21.64,0,0,0-6.22-15.77A20.58,20.58,0,0,0,401.51,7.26Z"/><path class="cls-3" d="M400.73,58.19a27.12,27.12,0,0,1-20.07-8.53,28.66,28.66,0,0,1-8.32-20.72,28.18,28.18,0,0,1,8.39-20.45A27.49,27.49,0,0,1,400.93,0a26.35,26.35,0,0,1,12.36,2.91,27.63,27.63,0,0,1,8.77,7.47V6.29c0-4.72,7.1-4.88,7.4-4.89H430V56.77l-.49,0c-.15,0-3.64.11-5.8-2a5.5,5.5,0,0,1-1.62-4.13V48.32a30.08,30.08,0,0,1-9.13,7.12A27.31,27.31,0,0,1,400.73,58.19ZM400.93,1a26.5,26.5,0,0,0-19.47,8.19,27.19,27.19,0,0,0-8.1,19.73,27.67,27.67,0,0,0,8,20,27,27,0,0,0,31.08,5.57,29.58,29.58,0,0,0,9.58-7.77v-.18h1v4.12a4.52,4.52,0,0,0,1.31,3.4,7.39,7.39,0,0,0,4.56,1.68V2.45c-1.52.13-5.87.75-5.87,3.84v7.21l-.93-1.29a27.27,27.27,0,0,0-9.34-8.39A25.35,25.35,0,0,0,400.93,1Zm.53,50.71a21.28,21.28,0,0,1-10.92-3,22,22,0,0,1-8.1-8.35,22.51,22.51,0,0,1,0-22.46A21.59,21.59,0,0,1,401.51,6.75a21.16,21.16,0,0,1,15.66,6.49,22.22,22.22,0,0,1,6.37,16.13,23,23,0,0,1-2.84,11.38,20.93,20.93,0,0,1-8.11,8A22.4,22.4,0,0,1,401.46,51.74Zm.05-44a20.57,20.57,0,0,0-18.19,10.67,21.5,21.5,0,0,0,0,21.46,21,21,0,0,0,7.72,8,20.27,20.27,0,0,0,10.4,2.85,21.39,21.39,0,0,0,10.62-2.83,19.93,19.93,0,0,0,7.72-7.64,22,22,0,0,0,2.71-10.88A21.24,21.24,0,0,0,416.44,14,20.17,20.17,0,0,0,401.51,7.77Z"/></g></g></svg>